<?xml version="1.0" encoding="UTF-8" standalone="no"?>
<!-- Created with Inkscape (http://www.inkscape.org/) -->

<svg
   width="78.522621mm"
   height="93.936508mm"
   viewBox="0 0 78.522621 93.936502"
   version="1.1"
   id="svg1"
   xml:space="preserve"
   xmlns:xlink="http://www.w3.org/1999/xlink"
   xmlns="http://www.w3.org/2000/svg"
   xmlns:svg="http://www.w3.org/2000/svg"><defs
     id="defs1"><linearGradient
       id="swatch6"><stop
         style="stop-color:#824040;stop-opacity:0;"
         offset="0"
         id="stop6" /></linearGradient><linearGradient
       id="linearGradient71"><stop
         style="stop-color:#45466e;stop-opacity:1;"
         offset="0"
         id="stop71" /><stop
         style="stop-color:#7f81ae;stop-opacity:1;"
         offset="0.37020648"
         id="stop73" /><stop
         style="stop-color:#45476e;stop-opacity:1;"
         offset="1"
         id="stop72" /></linearGradient><linearGradient
       xlink:href="#linearGradient71"
       id="linearGradient72"
       x1="8.4088573"
       y1="11.641608"
       x2="184.87059"
       y2="90.207436"
       gradientUnits="userSpaceOnUse"
       gradientTransform="matrix(0.33828909,0,0,0.28519453,110.82965,292.14608)" /><linearGradient
       xlink:href="#linearGradient71"
       id="linearGradient1"
       gradientUnits="userSpaceOnUse"
       gradientTransform="matrix(-0.33828909,0,0,-0.28519453,176.17847,267.46033)"
       x1="8.4088573"
       y1="11.641608"
       x2="184.87059"
       y2="90.207436" /></defs><g
     id="layer2"
     transform="translate(-104.24423,-232.83335)"><rect
       style="fill:#beb2e5;fill-opacity:1;fill-rule:evenodd;stroke:#43446a;stroke-width:6.59106;stroke-linecap:round;stroke-linejoin:round;stroke-miterlimit:20.3;stroke-dasharray:none;stroke-opacity:1"
       id="rect4-4"
       width="71.931557"
       height="87.345451"
       x="107.53976"
       y="236.12888" /><path
       style="display:inline;fill:url(#linearGradient72);fill-opacity:1;fill-rule:evenodd;stroke:#000000;stroke-width:0.123;stroke-linecap:round;stroke-miterlimit:20.3;stroke-dasharray:none;stroke-opacity:1"
       d="m 110.90512,319.40897 h 11.3922 l 8.40176,-7.08311 h 11.43808 l 1.25687,-0.61175 h 5.54556 l 2.44015,1.1877 h 3.64624 l 5.6305,-4.7468 v -8.97243 l 5.50877,-4.64417 h 6.58284 l 2.75021,-2.31856 0.57269,0.34132 -3.05997,2.57972 h -6.53724 l -5.05774,4.26393 v 9.03935 l -6.06276,5.11119 h -4.25899 l -2.36625,-1.15174 h -5.07032 l -1.29993,0.63273 h -11.32643 l -8.39968,7.08133 h -11.63163 z"
       id="path71" /><path
       style="display:inline;fill:url(#linearGradient1);fill-opacity:1;fill-rule:evenodd;stroke:#000000;stroke-width:0.123;stroke-linecap:round;stroke-miterlimit:20.3;stroke-dasharray:none;stroke-opacity:1"
       d="m 176.103,240.19744 h -11.3922 l -8.40176,7.08311 h -11.43808 l -1.25687,0.61175 h -5.54556 l -2.44015,-1.1877 h -3.64624 l -5.6305,4.7468 v 8.97243 l -5.50877,4.64417 h -6.58284 l -2.75021,2.31856 -0.57269,-0.34132 3.05997,-2.57972 h 6.53724 l 5.05774,-4.26393 v -9.03935 l 6.06276,-5.11119 h 4.25899 l 2.36625,1.15174 h 5.07032 l 1.29993,-0.63273 h 11.32643 l 8.39968,-7.08133 h 11.63163 z"
       id="path71-8" /></g></svg>
