<?xml version="1.0" encoding="UTF-8" standalone="no"?>
<!-- Created with Inkscape (http://www.inkscape.org/) -->

<svg
   width="36.439888mm"
   height="19.012115mm"
   viewBox="0 0 36.439888 19.012116"
   version="1.1"
   id="svg1"
   xml:space="preserve"
   sodipodi:docname="toggle_on.svg"
   inkscape:version="1.3.2 (091e20e, 2023-11-25, custom)"
   xmlns:inkscape="http://www.inkscape.org/namespaces/inkscape"
   xmlns:sodipodi="http://sodipodi.sourceforge.net/DTD/sodipodi-0.dtd"
   xmlns="http://www.w3.org/2000/svg"
   xmlns:svg="http://www.w3.org/2000/svg"><sodipodi:namedview
     id="namedview1"
     pagecolor="#ffffff"
     bordercolor="#666666"
     borderopacity="1.0"
     inkscape:showpageshadow="2"
     inkscape:pageopacity="0.0"
     inkscape:pagecheckerboard="0"
     inkscape:deskcolor="#d1d1d1"
     inkscape:document-units="mm"
     inkscape:zoom="1.7953476"
     inkscape:cx="-47.901588"
     inkscape:cy="-74.915856"
     inkscape:window-width="1920"
     inkscape:window-height="1057"
     inkscape:window-x="-8"
     inkscape:window-y="-8"
     inkscape:window-maximized="1"
     inkscape:current-layer="g3-0" /><defs
     id="defs1" /><g
     id="layer2"
     transform="translate(-150.28764,-99.960517)"><g
       style="fill:#000000"
       id="g19"
       transform="matrix(0,0.08354917,-0.08354917,0,162.10856,60.008429)"><g
         id="g4-2">
	<g
   id="g3-0">
		
	<path
   style="fill:#66bf00;fill-opacity:1;stroke:#000000;stroke-width:3.1668px;stroke-linecap:butt;stroke-linejoin:miter;stroke-opacity:1"
   d="m 484.63458,-85.75828 5.54189,187.63278 43.54347,31.66798 144.88101,-4.7502 21.37588,-58.58576 -2.3751,-175.75728 -37.20987,30.08458 -144.08931,-1.5834 -28.50118,-25.33439 z"
   id="path48" /><path
   style="fill:#363636;fill-opacity:1;stroke:#000000;stroke-width:3.1668px;stroke-linecap:butt;stroke-linejoin:miter;stroke-opacity:1"
   d="m 490.96817,-104.75906 39.58497,28.50118 140.13081,0.7917 26.91778,-45.91857 -3.16679,-143.29761 -35.62648,-22.95928 -153.5897,7.91699 -20.58418,54.62727 z"
   id="path49" /><g
   id="g6-7"
   style="fill:#000000"
   transform="translate(335.96453,-332.5904)">
	<g
   id="g5-5">
		<rect
   x="218.07401"
   y="94.815002"
   width="75.851997"
   height="18.962999"
   id="rect4" />
	</g>
</g><g
   id="g8"
   style="fill:#000000"
   transform="translate(335.96453,-332.5904)">
	<g
   id="g7">
		<rect
   x="218.07401"
   y="142.222"
   width="75.851997"
   height="18.962999"
   id="rect6" />
	</g>
</g><g
   id="g10-9"
   style="fill:#000000"
   transform="translate(335.96453,-332.5904)">
	<g
   id="g9">
		<rect
   x="218.07401"
   y="189.63"
   width="75.851997"
   height="18.962999"
   id="rect8" />
	</g>
</g><path
   d="m 648.92753,-294.6644 h -113.926 c -31.324,0 -56.815,25.537 -56.815,56.931 v 56.847 56.88 208.56 c 0,31.394 25.491,56.931 56.815,56.931 h 113.926 c 31.324,0 56.815,-25.537 56.815,-56.931 v -208.56 -56.88 -56.847 c 0,-31.394 -25.491,-56.931 -56.815,-56.931 z m -151.778,113.778 v -56.847 c 0,-20.935 16.982,-37.968 37.852,-37.968 h 113.926 c 20.87,0 37.852,17.032 37.852,37.968 v 56.847 56.88 c 0,20.917 -16.982,37.935 -37.852,37.935 h -113.926 c -20.87,0 -37.852,-17.019 -37.852,-37.935 z m 189.63,265.439 c 0,20.935 -16.982,37.968 -37.852,37.968 h -113.926 c -20.87,0 -37.852,-17.032 -37.852,-37.968 v -166.25 c 10.06,9.037 23.305,14.588 37.852,14.588 h 113.926 c 14.546,0 27.789,-5.551 37.852,-14.588 z"
   id="path2-23"
   style="fill:#000000" /></g>
</g></g></g></svg>
